<svg width="26" height="26" viewBox="0 0 26 26" fill="none" xmlns="http://www.w3.org/2000/svg">
<path fill-rule="evenodd" clip-rule="evenodd" d="M14.417 15.275C14.612 15.522 14.846 15.8015 14.846 15.8015C16.2825 15.756 16.835 14.8135 16.835 14.8135C16.835 12.7205 15.899 11.024 15.899 11.024C14.963 10.322 14.0725 10.3415 14.0725 10.3415L13.9815 10.4455C15.0865 10.7835 15.6 11.271 15.6 11.271C14.924 10.9005 14.261 10.7185 13.6435 10.647C13.1755 10.595 12.727 10.608 12.3305 10.66C12.2965 10.66 12.2674 10.665 12.2346 10.6705L12.22 10.673C11.9925 10.6925 11.44 10.777 10.7445 11.0825C10.504 11.193 10.361 11.271 10.361 11.271C10.361 11.271 10.9005 10.7575 12.0705 10.4195L12.0055 10.3415C12.0055 10.3415 11.115 10.322 10.179 11.024C10.179 11.024 9.243 12.7205 9.243 14.8135C9.243 14.8135 9.789 15.756 11.2255 15.8015C11.2255 15.8015 11.466 15.509 11.661 15.262C10.8355 15.015 10.5235 14.495 10.5235 14.495C10.5235 14.495 10.5885 14.5405 10.7055 14.6055C10.712 14.612 10.7185 14.6185 10.7315 14.625C10.7413 14.6315 10.751 14.6364 10.7608 14.6413C10.7705 14.6461 10.7803 14.651 10.79 14.6575C10.9525 14.7485 11.115 14.82 11.2645 14.8785C11.531 14.9825 11.8495 15.0865 12.22 15.158C12.7075 15.249 13.2795 15.2815 13.9035 15.1645C14.209 15.1125 14.521 15.0215 14.846 14.885C15.0735 14.8005 15.327 14.677 15.5935 14.5015C15.5935 14.5015 15.2685 15.0345 14.417 15.275ZM11.1605 13.4875C11.1605 13.091 11.453 12.766 11.8235 12.766C12.194 12.766 12.493 13.091 12.4865 13.4875C12.4865 13.884 12.194 14.209 11.8235 14.209C11.4595 14.209 11.1605 13.884 11.1605 13.4875ZM13.533 13.4875C13.533 13.091 13.8255 12.766 14.196 12.766C14.5665 12.766 14.859 13.091 14.859 13.4875C14.859 13.884 14.5665 14.209 14.196 14.209C13.832 14.209 13.533 13.884 13.533 13.4875Z" fill="#00C0CE"/>
<path fill-rule="evenodd" clip-rule="evenodd" d="M21.9375 0C24.1812 0 26 1.81884 26 4.0625V21.9375C26 24.1812 24.1812 26 21.9375 26H4.0625C1.81884 26 0 24.1812 0 21.9375V4.0625C0 1.81884 1.81884 0 4.0625 0H21.9375ZM8.645 7.3125H17.355C18.0895 7.3125 18.6875 7.9105 18.6875 8.6515V20.3125L17.29 19.0775L16.5035 18.3495L15.6715 17.576L16.016 18.7785H8.645C7.9105 18.7785 7.3125 18.1805 7.3125 17.4395V8.6515C7.3125 7.9105 7.9105 7.3125 8.645 7.3125Z" fill="#00C0CE"/>
</svg>
