<svg width="26" height="26" viewBox="0 0 26 26" fill="none" xmlns="http://www.w3.org/2000/svg">
<path fill-rule="evenodd" clip-rule="evenodd" d="M0 4.0625C0 1.81884 1.81884 0 4.0625 0H21.9375C24.1812 0 26 1.81884 26 4.0625V21.9375C26 24.1812 24.1812 26 21.9375 26H4.0625C1.81884 26 0 24.1812 0 21.9375V4.0625ZM6.5 13.1361C6.5 9.55814 9.40212 6.656 12.9801 6.656C16.5581 6.656 19.4602 9.55814 19.5 13.1361C19.5 15.9985 17.6712 18.4236 15.0871 19.2982C14.7691 19.338 14.6498 19.1392 14.6498 18.9802V17.1912C14.6498 16.5948 14.4511 16.1973 14.2126 15.9985C15.6437 15.8395 17.1544 15.3227 17.1544 12.8181C17.1544 12.1025 16.8761 11.5062 16.4786 11.0688C16.4817 11.0564 16.4861 11.0407 16.4913 11.022C16.5522 10.8024 16.7288 10.1653 16.3991 9.35936C16.3991 9.35936 15.8425 9.20035 14.6101 10.0352C14.0933 9.91594 13.5367 9.83643 12.9801 9.83643C12.4236 9.83643 11.867 9.87618 11.3502 10.0352C10.1177 9.20035 9.56116 9.35936 9.56116 9.35936C9.2098 10.2183 9.43351 10.8855 9.47933 11.0221L9.48166 11.0291C9.04432 11.5062 8.80579 12.0627 8.80579 12.7783C8.80579 15.2829 10.3165 15.8395 11.7477 15.9985C11.5887 16.1575 11.3899 16.4358 11.3502 16.8731C10.9924 17.0321 10.078 17.3104 9.48166 16.3166C9.48166 16.3166 9.12386 15.6805 8.48776 15.6407C8.48776 15.6407 7.8517 15.6407 8.44804 16.0383C8.44804 16.0383 8.88533 16.237 9.16359 16.9924C9.16359 16.9924 9.56116 18.2646 11.3502 17.867V18.9802C11.3502 19.1392 11.2309 19.338 10.9129 19.2982C8.36849 18.4236 6.5 15.9985 6.5 13.1361Z" fill="#00C0CE"/>
</svg>
