<svg width="70" height="70" fill="none" xmlns="http://www.w3.org/2000/svg"><circle cx="35" cy="35" r="34.25" fill="#1C1C1C" stroke="#0AE0F0" stroke-width="1.5" stroke-dasharray="3"/><mask id="a" fill="#fff"><path d="M63.01 55.99A34.845 34.845 0 0070 35C70 15.67 54.33 0 35 0"/></mask><path d="M64.21 56.89A36.345 36.345 0 0071.5 35h-3c0 7.54-2.489 14.493-6.69 20.09l2.4 1.8zM71.5 35C71.5 14.842 55.158-1.5 35-1.5v3c18.502 0 33.5 14.998 33.5 33.5h3z" fill="#0AE0F0" mask="url(#a)"/><path d="M31.91 23l12.09.032-9.72 11.27 9.454-1.285L25.531 55l7.765-15.583L25 40.702 31.91 23z" fill="#fff"/></svg>