<svg width="57" height="70" fill="none" xmlns="http://www.w3.org/2000/svg"><path d="M35.646 63.285h0l-7.941 5.658-7.94-5.657s0 0 0 0C7.864 54.767.75 40.877.75 26.126v-16.7L27.705.788l26.954 8.638v16.7c0 14.826-7.116 28.714-19.013 37.159z" fill="#1C1C1C" stroke="#0AE0F0" stroke-width="1.5"/><path fill-rule="evenodd" clip-rule="evenodd" d="M20.45 24.822v3.375h-2.689V43.88h19.851V28.197h-2.69v-3.375c0-3.874-3.265-7.06-7.235-7.06s-7.236 3.186-7.236 7.06zm5.572 15.247l.576-4.187c-.576-.375-.96-1-.96-1.687 0-1.125.896-2 2.049-2 1.152 0 2.049.875 2.049 2 0 .688-.384 1.312-.96 1.687l.576 4.187h-3.33zm1.665-19.37c-2.306 0-4.227 1.811-4.227 4.123v3.375h8.453v-3.375c0-2.25-1.857-4.124-4.226-4.124z" fill="#fff"/></svg>