<svg width="1024" height="1024" viewBox="0 0 1024 1024" fill="none" xmlns="http://www.w3.org/2000/svg">
<rect width="1024" height="1024" rx="180" fill="#060D0E"/>
<path fill-rule="evenodd" clip-rule="evenodd" d="M512.727 93.38C624.706 93.38 729.982 136.924 809.165 215.991C888.344 295.058 931.952 400.182 931.952 512.001C931.952 623.818 888.344 728.942 809.165 808.009C729.982 887.076 624.706 930.62 512.727 930.62C400.747 930.62 295.47 887.076 216.289 808.009C137.108 728.942 93.5005 623.818 93.5005 512.001C93.5005 400.182 137.108 295.058 216.289 215.991C295.47 136.924 400.747 93.38 512.727 93.38ZM148.16 512.001C148.16 712.732 311.704 876.039 512.727 876.039C713.75 876.039 877.292 712.732 877.292 512.001C877.292 311.268 713.75 147.961 512.727 147.961C311.704 147.961 148.16 311.268 148.16 512.001Z" fill="#0AE0F0"/>
<path fill-rule="evenodd" clip-rule="evenodd" d="M363.584 725.579H436.362L663.276 300.466H589.892L363.584 725.579Z" fill="white"/>
</svg>
