<svg width="26" height="26" viewBox="0 0 26 26" fill="none" xmlns="http://www.w3.org/2000/svg">
<path fill-rule="evenodd" clip-rule="evenodd" d="M0 4.0625C0 1.81884 1.81884 0 4.0625 0H21.9375C24.1812 0 26 1.81884 26 4.0625V21.9375C26 24.1812 24.1812 26 21.9375 26H4.0625C1.81884 26 0 24.1812 0 21.9375V4.0625ZM17.9563 9.34375C18.525 9.2625 19.0125 9.18125 19.5 8.9375C19.175 9.50625 18.6875 9.99375 18.1187 10.3187C18.2812 14.1375 15.5188 18.2812 10.5625 18.2812C9.1 18.2812 7.71875 17.7937 6.5 17.0625C7.88125 17.225 9.34375 16.8187 10.3187 16.0875C9.1 16.0875 8.125 15.275 7.8 14.2188C8.20625 14.3 8.6125 14.2188 9.01875 14.1375C7.8 13.8125 6.90625 12.675 6.90625 11.4563C7.3125 11.6188 7.71875 11.7812 8.125 11.7812C6.9875 10.9688 6.58125 9.425 7.3125 8.20625C8.69375 9.83125 10.6438 10.8875 12.8375 10.9688C12.4313 9.34375 13.7312 7.71875 15.4375 7.71875C16.1687 7.71875 16.9 8.04375 17.3875 8.53125C18.0375 8.36875 18.6062 8.20625 19.0938 7.88125C18.9312 8.53125 18.525 9.01875 17.9563 9.34375Z" fill="#00C0CE"/>
</svg>
